<?xml version="1.0" standalone="no"?>
<!DOCTYPE svg PUBLIC "-//W3C//DTD SVG 20010904//EN"
 "http://www.w3.org/TR/2001/REC-SVG-20010904/DTD/svg10.dtd">
<svg version="1.0" xmlns="http://www.w3.org/2000/svg"
 width="712.000000pt" height="945.000000pt" viewBox="0 0 712.000000 945.000000"
 preserveAspectRatio="xMidYMid meet">

<g transform="translate(0.000000,945.000000) scale(0.100000,-0.100000)"
fill="#000000" stroke="none">
<path d="M1030 9254 c-103 -38 -153 -67 -201 -119 -25 -26 -28 -38 -29 -94 0
-65 0 -65 49 -111 29 -27 75 -56 115 -73 62 -25 76 -27 212 -27 140 0 147 1
210 30 69 33 140 97 150 137 11 41 -2 110 -25 140 -12 15 -59 48 -104 72 l-82
45 -140 3 c-77 1 -147 0 -155 -3z"/>
<path d="M4824 8792 c-14 -17 -15 -98 -12 -773 7 -1577 3 -2728 -8 -2739 -8
-8 -26 9 -65 60 -30 39 -101 131 -159 204 -58 73 -137 175 -177 227 -152 197
-339 437 -437 559 -55 70 -134 169 -173 221 -40 52 -101 130 -135 175 -35 44
-112 145 -173 223 -60 79 -152 195 -202 259 -51 65 -101 127 -110 139 -10 12
-47 61 -83 108 -36 47 -112 146 -170 219 -58 74 -148 189 -200 256 -171 221
-260 334 -288 370 -35 43 -180 234 -240 315 -44 59 -137 155 -150 155 -4 0
-32 -23 -62 -51 -30 -28 -72 -61 -92 -75 -55 -36 -232 -124 -249 -124 -8 0
-41 -9 -74 -19 -86 -28 -208 -41 -386 -41 -174 1 -356 20 -411 44 -21 9 -46
16 -56 16 -20 0 -102 34 -187 77 -53 27 -111 71 -185 140 -30 28 -47 38 -52
30 -4 -7 -8 -1261 -8 -2789 l0 -2776 52 -77 c79 -118 189 -206 358 -289 41
-21 84 -42 95 -48 53 -30 179 -55 406 -83 182 -22 199 -21 474 24 70 12 195
45 222 60 10 5 48 23 84 39 36 16 99 51 140 78 89 59 235 201 272 266 l27 47
0 1015 c0 703 3 1023 11 1043 l11 28 24 -30 c22 -28 66 -90 154 -219 19 -28
60 -85 91 -126 30 -41 71 -100 92 -130 20 -30 50 -73 66 -95 16 -22 45 -62 65
-90 19 -27 55 -79 81 -115 25 -36 75 -108 111 -160 122 -177 134 -195 192
-274 31 -43 64 -89 72 -101 33 -49 112 -163 153 -220 56 -77 116 -163 172
-245 25 -36 61 -87 80 -115 20 -27 56 -79 80 -115 25 -36 72 -103 105 -150 33
-47 81 -114 106 -150 25 -36 60 -85 78 -110 18 -25 59 -83 91 -130 67 -96 127
-182 180 -255 20 -27 63 -90 95 -140 33 -49 89 -130 125 -180 36 -49 85 -120
110 -156 53 -79 99 -127 128 -134 12 -3 488 -4 1057 -3 l1034 3 13 25 c10 20
13 709 13 3451 0 2942 -2 3428 -14 3445 -14 19 -38 19 -1080 22 -1024 2 -1067
2 -1082 -16z"/>
<path d="M813 1763 c-19 -7 -16 -48 6 -91 11 -21 22 -55 26 -75 4 -21 11 -39
15 -42 5 -3 16 -29 26 -58 9 -28 20 -56 24 -62 4 -5 14 -32 23 -60 17 -54 91
-257 107 -290 5 -11 23 -58 41 -105 34 -94 100 -233 138 -295 38 -61 76 -87
133 -93 48 -5 50 -3 91 41 23 24 57 76 75 113 19 38 38 77 43 86 4 9 24 59 44
110 20 51 43 107 51 125 8 17 14 37 14 45 0 7 12 36 25 63 14 28 25 57 25 65
0 8 9 33 20 55 11 22 19 47 20 55 0 8 9 32 20 53 11 20 20 45 20 54 0 10 12
41 25 68 14 28 25 58 25 69 0 10 9 34 21 52 11 18 21 53 22 76 2 38 -1 43 -20
46 -13 2 -49 -8 -80 -22 -32 -13 -76 -27 -98 -31 -22 -3 -60 -14 -85 -22 -68
-25 -435 -25 -505 -1 -27 9 -76 22 -107 27 -32 6 -70 17 -85 24 -33 17 -83 27
-100 20z"/>
</g>
</svg>
